<svg width="125" height="190" viewBox="0 0 125 190" fill="none" xmlns="http://www.w3.org/2000/svg">
<g id="Group 3">
<path id="Vector" d="M62.0907 187.885C28.903 187.885 2 161.571 2 129.111V61.0587C2 28.5982 28.903 2.28467 62.0907 2.28467C95.2784 2.28467 122.181 28.5982 122.181 61.0587V129.111C122.181 161.571 95.2784 187.885 62.0907 187.885Z" stroke="black" stroke-width="4" stroke-miterlimit="10"/>
<path id="Vector_2" d="M78.793 107.539C79.7702 107.279 80.8648 107.133 82.1183 107.133C92.1323 107.133 92.1323 116.591 102.15 116.591C112.164 116.591 112.164 107.133 122.181 107.133" stroke="black" stroke-width="4" stroke-miterlimit="10"/>
<path id="Vector_3" d="M2 107.13C12.014 107.13 12.014 116.587 22.0279 116.587C32.0419 116.587 32.0419 107.13 42.0559 107.13C43.1471 107.13 44.1208 107.241 44.9979 107.441" stroke="black" stroke-width="4" stroke-miterlimit="10"/>
<path id="Vector_4" d="M73.3027 83.0793C75.4644 81.1406 77.9057 79.4619 82.1185 79.4619C92.1325 79.4619 92.1325 88.9192 102.15 88.9192C112.164 88.9192 112.164 79.4619 122.181 79.4619" stroke="black" stroke-width="4" stroke-miterlimit="10"/>
<path id="Vector_5" d="M2 79.4619C12.014 79.4619 12.014 88.9192 22.0279 88.9192C32.0419 88.9192 32.0419 79.4619 42.0559 79.4619C46.2755 79.4619 48.7169 81.1406 50.8785 83.0827" stroke="black" stroke-width="4" stroke-miterlimit="10"/>
<path id="Vector_6" d="M76.9111 94.3902C78.3234 93.7215 79.9982 93.2959 82.1184 93.2959C92.1324 93.2959 92.1324 102.753 102.15 102.753C112.164 102.753 112.164 93.2959 122.181 93.2959" stroke="black" stroke-width="4" stroke-miterlimit="10"/>
<path id="Vector_7" d="M2 93.2959C12.014 93.2959 12.014 102.753 22.0279 102.753C32.0419 102.753 32.0419 93.2959 42.0559 93.2959C44.1795 93.2959 45.8543 93.7215 47.2666 94.3902" stroke="black" stroke-width="4" stroke-miterlimit="10"/>
<path id="Vector_8" d="M79.6462 116.766C79.6462 132.589 75.6579 147.501 68.6032 160.588H55.5781C48.5269 147.501 44.5352 132.589 44.5352 116.766C44.5352 97.5653 50.4123 79.7055 60.5023 64.8178C61.255 63.7066 62.9263 63.7066 63.6791 64.8178C73.7725 79.7055 79.6462 97.5653 79.6462 116.766Z" stroke="black" stroke-width="4" stroke-miterlimit="10"/>
<path id="Vector_9" d="M78.4795 131.472C93.3278 133.238 107.427 137.383 120.362 143.51" stroke="black" stroke-width="4" stroke-miterlimit="10"/>
<path id="Vector_10" d="M3.83691 143.58C16.7653 137.44 30.8608 133.275 45.7057 131.492" stroke="black" stroke-width="4" stroke-miterlimit="10"/>
<path id="Vector_11" d="M68.731 73.1801C72.9368 70.4173 74.9914 65.6281 82.1186 65.6281C87.8542 65.6281 90.3025 68.7286 93.2307 71.3765C93.2307 71.3765 94.9607 64.6656 94.9607 61.0585C94.9607 43.3033 80.2436 28.9087 62.0907 28.9087C43.9378 28.9087 29.2207 43.3033 29.2207 61.0585C29.2207 64.6689 29.8285 68.1376 30.9507 71.3765C30.9507 71.3765 36.3272 65.6281 42.0593 65.6281C49.1899 65.6281 51.2445 70.4207 55.4469 73.1834" stroke="black" stroke-width="4" stroke-miterlimit="10"/>
<path id="Vector_12" d="M75.5097 160.588H68.6035" stroke="black" stroke-width="4" stroke-miterlimit="10" stroke-linecap="round"/>
<path id="Vector_13" d="M55.5785 160.588H48.6758" stroke="black" stroke-width="4" stroke-miterlimit="10" stroke-linecap="round"/>
<path id="Vector_14" d="M45.1738 127.659L62.1182 111.082L79.0349 127.629" stroke="black" stroke-width="4" stroke-miterlimit="10"/>
<path id="Vector_15" d="M62.1182 111.082V160.588" stroke="black" stroke-width="4" stroke-miterlimit="10"/>
</g>
</svg>
